<?xml version="1.0" encoding="utf-8"?>
<!-- Generator: Adobe Illustrator 16.0.0, SVG Export Plug-In . SVG Version: 6.00 Build 0)  -->
<!DOCTYPE svg PUBLIC "-//W3C//DTD SVG 1.1//EN" "http://www.w3.org/Graphics/SVG/1.1/DTD/svg11.dtd">
<svg version="1.1" id="Layer_1" xmlns="http://www.w3.org/2000/svg" xmlns:xlink="http://www.w3.org/1999/xlink" x="0px" y="0px"
	 width="50px" height="50px" viewBox="0 0 50 50" enable-background="new 0 0 50 50" xml:space="preserve">
<g>
	<path fill="#E6E7E8" d="M1.767,31.487c0,0,0.022-1.437,0.786-2.199c0,0,2.009-0.383,2.502-0.877
		c0.494-0.493,0.871-1.109,1.274-1.514c0.404-0.404,1.534-1.393,0.232-1.851l-0.579-2.284c0,0,0.326-0.307,1.196-0.531
		c0.871-0.225,1.231-0.312,1.95-0.625c0.718-0.314,1.437-0.312,2.29,0.002c0.854,0.315,2.021,0.271,2.245,0.495
		s0.136,0.675,0.764,0.675c0.628,0,0.628-0.494,0.898-0.764c0.269-0.27,0.809,0,1.527,0.27c0.718,0.269,0.538,0.809,1.257,0.09
		s1.167-0.999,2.379-0.999c0,0-0.269-0.931,0.27-0.931s1.638-0.652,0.897-1.393c-0.74-0.74-0.94-1.392,0.249-1.616
		c0,0,0.56-0.763-0.293-0.404c-0.853,0.359,0.539-0.763-0.18-0.763s-1.078-0.135-0.09-1.123c0,0,0.291,0.27,0.875-0.314
		S21,14.113,23,14.113V13.08c0,0,1.259-1.81,3.863-3.771c0,0,1.616-0.179,1.931-0.494C29.108,8.5,29.154,8.5,29.154,8.5l7.206-0.583
		c0,0-0.303,0.673-0.303,1.481s0.633,2.425,0.633,3.367c0,0.943-0.579,2.649-0.579,3.143c0,0.494,0.247,0.831,0.584,1.167
		c0.313,0.314,0.236,0.471,0.046,1.212c-0.015,0.056-0.03,0.116-0.045,0.18c0,0,1.364-0.358,1.364,5.478
		c0,5.836-1.061,6.105-1.061,7.991s0,3.771,0,3.771s-0.467,0.786-0.264,0.988c0.201,0.201,0.002,0.403,0.002,0.628
		c0,0.224,0.383,0.719,0.383,0.719l-2.244,1.975c0,0-0.437,0.269-0.437-0.987c0-1.257-1.477-0.763-2.644-1.526
		s-2.466-1.525-2.915-1.975s-0.985-0.36-0.985-2.604c0,0-0.045-0.403-0.854-0.09s0.404-0.988-0.27-0.988
		C26.101,31.847,1.767,31.487,1.767,31.487z"/>
	<path fill="#E6E7E8" d="M41.949,38.851c0,0,0.54-0.359,1.393-0.584c0.852-0.224,1.077-0.494,1.705-1.122
		c0.629-0.629,0.091,0.269-0.493,0.853s-0.988,1.213,0.09,1.213c0,0,0.942-1.14,1.616-1.14c0.673,0,1.101-0.096,1.347-0.342
		c0.246-0.247,1.168,0.179,0.18,0.628s-2.515,1.351-3.412,1.686s-1.394-0.247-1.932,0.29c-0.537,0.538-2.063,0.044-2.468,0.448
		c-0.405,0.405-1.214,0.63-1.842,0.63s-0.627,0.673-1.257,0.673c-0.629,0-0.45-0.942-1.571-0.314
		c-0.292,0.293-0.404-0.583,0.449-1.437c0.854-0.853,1.414-1.816,2.154-1.077c0,0,0.675-0.493,1.932-0.27
		C41.096,39.21,40.198,37.953,41.949,38.851z"/>
	<circle cx="35.469" cy="38.738" r="1.044"/>
</g>
</svg>
